<svg xmlns="http://www.w3.org/2000/svg" width="24" height="24" fill="#FFFFFF" viewBox="0 0 24 24">
  <path d="M12 0C5.371 0 0 5.371 0 12c0 5.303 3.438 9.8 8.205 11.387.6.111.82-.261.82-.577 
  0-.285-.011-1.04-.016-2.04-3.338.724-4.042-1.609-4.042-1.609C4.422 17.07 3.633 
  16.7 3.633 16.7c-1.087-.744.083-.729.083-.729 1.205.085 1.84 1.236 
  1.84 1.236 1.07 1.834 2.807 1.304 3.492.997.108-.775.419-1.305.762-1.605-2.665-.305-5.466-1.332-5.466-5.931 
  0-1.31.469-2.381 1.236-3.221-.124-.303-.536-1.523.117-3.176 
  0 0 1.008-.322 3.301 1.23a11.52 11.52 0 0 1 3.003-.404c1.018.005 2.043.138 
  3.003.404 2.291-1.552 3.297-1.23 3.297-1.23.655 1.653.243 2.873.119 
  3.176.77.84 1.235 1.911 1.235 3.221 0 4.61-2.804 5.624-5.475 
  5.921.43.371.823 1.102.823 2.222 0 1.604-.015 2.896-.015 3.293 0 
  .319.216.694.825.576C20.565 21.796 24 17.298 24 12c0-6.629-5.371-12-12-12z"/>
</svg>
