<svg xmlns="http://www.w3.org/2000/svg" viewBox="0 0 128 128">
  <circle cx="64" cy="64" r="11.4" fill="#61DAFB"/>
  <path fill="none" stroke="#61DAFB" stroke-width="5" d="M64 0C28 0 0 28 0 64s28 64 64 64 64-28 64-64S100 0 64 0z"/>
  <path fill="none" stroke="#61DAFB" stroke-width="5" d="M64 0C28 0 0 28 0 64s28 64 64 64 64-28 64-64S100 0 64 0z" transform="rotate(60 64 64)"/>
  <path fill="none" stroke="#61DAFB" stroke-width="5" d="M64 0C28 0 0 28 0 64s28 64 64 64 64-28 64-64S100 0 64 0z" transform="rotate(120 64 64)"/>
</svg>
